<svg xmlns="http://www.w3.org/2000/svg" xmlns:xlink="http://www.w3.org/1999/xlink" version="1.1" class="marks" width="351" height="347" viewBox="0 0 351 347"><rect width="351" height="347" fill="white"/><g fill="none" stroke-miterlimit="10" transform="translate(44,10)"><g class="mark-group role-frame root" role="graphics-object" aria-roledescription="group mark container"><g transform="translate(0,0)"><path class="background" aria-hidden="true" d="M0.5,0.5h300v300h-300Z" stroke="#ddd"/><g><g class="mark-group role-axis" aria-hidden="true"><g transform="translate(0.5,300.5)"><path class="background" aria-hidden="true" d="M0,0h0v0h0Z" pointer-events="none"/><g><g class="mark-rule role-axis-grid" pointer-events="none"><line transform="translate(0,-300)" x2="0" y2="300" stroke="#ddd" stroke-width="1" opacity="1"/><line transform="translate(30,-300)" x2="0" y2="300" stroke="#ddd" stroke-width="1" opacity="1"/><line transform="translate(60,-300)" x2="0" y2="300" stroke="#ddd" stroke-width="1" opacity="1"/><line transform="translate(90,-300)" x2="0" y2="300" stroke="#ddd" stroke-width="1" opacity="1"/><line transform="translate(120,-300)" x2="0" y2="300" stroke="#ddd" stroke-width="1" opacity="1"/><line transform="translate(150,-300)" x2="0" y2="300" stroke="#ddd" stroke-width="1" opacity="1"/><line transform="translate(180,-300)" x2="0" y2="300" stroke="#ddd" stroke-width="1" opacity="1"/><line transform="translate(210,-300)" x2="0" y2="300" stroke="#ddd" stroke-width="1" opacity="1"/><line transform="translate(240,-300)" x2="0" y2="300" stroke="#ddd" stroke-width="1" opacity="1"/><line transform="translate(270,-300)" x2="0" y2="300" stroke="#ddd" stroke-width="1" opacity="1"/><line transform="translate(300,-300)" x2="0" y2="300" stroke="#ddd" stroke-width="1" opacity="1"/></g></g><path class="foreground" aria-hidden="true" d="" pointer-events="none" display="none"/></g></g><g class="mark-group role-axis" aria-hidden="true"><g transform="translate(0.5,0.5)"><path class="background" aria-hidden="true" d="M0,0h0v0h0Z" pointer-events="none"/><g><g class="mark-rule role-axis-grid" pointer-events="none"><line transform="translate(0,300)" x2="300" y2="0" stroke="#ddd" stroke-width="1" opacity="1"/><line transform="translate(0,257)" x2="300" y2="0" stroke="#ddd" stroke-width="1" opacity="1"/><line transform="translate(0,214)" x2="300" y2="0" stroke="#ddd" stroke-width="1" opacity="1"/><line transform="translate(0,171)" x2="300" y2="0" stroke="#ddd" stroke-width="1" opacity="1"/><line transform="translate(0,129)" x2="300" y2="0" stroke="#ddd" stroke-width="1" opacity="1"/><line transform="translate(0,86)" x2="300" y2="0" stroke="#ddd" stroke-width="1" opacity="1"/><line transform="translate(0,43)" x2="300" y2="0" stroke="#ddd" stroke-width="1" opacity="1"/><line transform="translate(0,0)" x2="300" y2="0" stroke="#ddd" stroke-width="1" opacity="1"/></g></g><path class="foreground" aria-hidden="true" d="" pointer-events="none" display="none"/></g></g><g class="mark-group role-axis" role="graphics-symbol" aria-roledescription="axis" aria-label="X-axis titled 'x' for a linear scale with values from 0.0 to 1.0"><g transform="translate(0.5,300.5)"><path class="background" aria-hidden="true" d="M0,0h0v0h0Z" pointer-events="none"/><g><g class="mark-rule role-axis-tick" pointer-events="none"><line transform="translate(0,0)" x2="0" y2="5" stroke="#888" stroke-width="1" opacity="1"/><line transform="translate(30,0)" x2="0" y2="5" stroke="#888" stroke-width="1" opacity="1"/><line transform="translate(60,0)" x2="0" y2="5" stroke="#888" stroke-width="1" opacity="1"/><line transform="translate(90,0)" x2="0" y2="5" stroke="#888" stroke-width="1" opacity="1"/><line transform="translate(120,0)" x2="0" y2="5" stroke="#888" stroke-width="1" opacity="1"/><line transform="translate(150,0)" x2="0" y2="5" stroke="#888" stroke-width="1" opacity="1"/><line transform="translate(180,0)" x2="0" y2="5" stroke="#888" stroke-width="1" opacity="1"/><line transform="translate(210,0)" x2="0" y2="5" stroke="#888" stroke-width="1" opacity="1"/><line transform="translate(240,0)" x2="0" y2="5" stroke="#888" stroke-width="1" opacity="1"/><line transform="translate(270,0)" x2="0" y2="5" stroke="#888" stroke-width="1" opacity="1"/><line transform="translate(300,0)" x2="0" y2="5" stroke="#888" stroke-width="1" opacity="1"/></g><g class="mark-text role-axis-label" pointer-events="none"><text text-anchor="start" transform="translate(0,15)" font-family="sans-serif" font-size="10px" fill="#000" opacity="1">0.0</text><text text-anchor="middle" transform="translate(30,15)" font-family="sans-serif" font-size="10px" fill="#000" opacity="1">0.1</text><text text-anchor="middle" transform="translate(60,15)" font-family="sans-serif" font-size="10px" fill="#000" opacity="1">0.2</text><text text-anchor="middle" transform="translate(90,15)" font-family="sans-serif" font-size="10px" fill="#000" opacity="1">0.3</text><text text-anchor="middle" transform="translate(120,15)" font-family="sans-serif" font-size="10px" fill="#000" opacity="1">0.4</text><text text-anchor="middle" transform="translate(150,15)" font-family="sans-serif" font-size="10px" fill="#000" opacity="1">0.5</text><text text-anchor="middle" transform="translate(180,15)" font-family="sans-serif" font-size="10px" fill="#000" opacity="1">0.6</text><text text-anchor="middle" transform="translate(210,15)" font-family="sans-serif" font-size="10px" fill="#000" opacity="1">0.7</text><text text-anchor="middle" transform="translate(240,15)" font-family="sans-serif" font-size="10px" fill="#000" opacity="1">0.8</text><text text-anchor="middle" transform="translate(270,15)" font-family="sans-serif" font-size="10px" fill="#000" opacity="1">0.9</text><text text-anchor="end" transform="translate(300,15)" font-family="sans-serif" font-size="10px" fill="#000" opacity="1">1.0</text></g><g class="mark-rule role-axis-domain" pointer-events="none"><line transform="translate(0,0)" x2="300" y2="0" stroke="#888" stroke-width="1" opacity="1"/></g><g class="mark-text role-axis-title" pointer-events="none"><text text-anchor="middle" transform="translate(150,30)" font-family="sans-serif" font-size="11px" font-weight="bold" fill="#000" opacity="1">x</text></g></g><path class="foreground" aria-hidden="true" d="" pointer-events="none" display="none"/></g></g><g class="mark-group role-axis" role="graphics-symbol" aria-roledescription="axis" aria-label="Y-axis titled 'f(x)' for a linear scale with values from 0 to 700"><g transform="translate(0.5,0.5)"><path class="background" aria-hidden="true" d="M0,0h0v0h0Z" pointer-events="none"/><g><g class="mark-rule role-axis-tick" pointer-events="none"><line transform="translate(0,300)" x2="-5" y2="0" stroke="#888" stroke-width="1" opacity="1"/><line transform="translate(0,257)" x2="-5" y2="0" stroke="#888" stroke-width="1" opacity="1"/><line transform="translate(0,214)" x2="-5" y2="0" stroke="#888" stroke-width="1" opacity="1"/><line transform="translate(0,171)" x2="-5" y2="0" stroke="#888" stroke-width="1" opacity="1"/><line transform="translate(0,129)" x2="-5" y2="0" stroke="#888" stroke-width="1" opacity="1"/><line transform="translate(0,86)" x2="-5" y2="0" stroke="#888" stroke-width="1" opacity="1"/><line transform="translate(0,43)" x2="-5" y2="0" stroke="#888" stroke-width="1" opacity="1"/><line transform="translate(0,0)" x2="-5" y2="0" stroke="#888" stroke-width="1" opacity="1"/></g><g class="mark-text role-axis-label" pointer-events="none"><text text-anchor="end" transform="translate(-7,303)" font-family="sans-serif" font-size="10px" fill="#000" opacity="1">0</text><text text-anchor="end" transform="translate(-7,260.14285714285717)" font-family="sans-serif" font-size="10px" fill="#000" opacity="1">100</text><text text-anchor="end" transform="translate(-7,217.28571428571428)" font-family="sans-serif" font-size="10px" fill="#000" opacity="1">200</text><text text-anchor="end" transform="translate(-7,174.42857142857142)" font-family="sans-serif" font-size="10px" fill="#000" opacity="1">300</text><text text-anchor="end" transform="translate(-7,131.57142857142858)" font-family="sans-serif" font-size="10px" fill="#000" opacity="1">400</text><text text-anchor="end" transform="translate(-7,88.71428571428571)" font-family="sans-serif" font-size="10px" fill="#000" opacity="1">500</text><text text-anchor="end" transform="translate(-7,45.85714285714287)" font-family="sans-serif" font-size="10px" fill="#000" opacity="1">600</text><text text-anchor="end" transform="translate(-7,3)" font-family="sans-serif" font-size="10px" fill="#000" opacity="1">700</text></g><g class="mark-rule role-axis-domain" pointer-events="none"><line transform="translate(0,300)" x2="0" y2="-300" stroke="#888" stroke-width="1" opacity="1"/></g><g class="mark-text role-axis-title" pointer-events="none"><text text-anchor="middle" transform="translate(-27.6845703125,150) rotate(-90) translate(0,-2)" font-family="sans-serif" font-size="11px" font-weight="bold" fill="#000" opacity="1">f(x)</text></g></g><path class="foreground" aria-hidden="true" d="" pointer-events="none" display="none"/></g></g><g class="mark-line role-mark marks" role="graphics-object" aria-roledescription="line mark container"><path aria-label="x: 0.0010000000475; f(x): 662.55859375" role="graphics-symbol" aria-roledescription="line mark" d="M0.3,16.046L0.302,33.03L0.304,21.606L0.306,21.778L0.308,23.614L0.311,14.659L0.313,16.367L0.315,20.617L0.317,25.784L0.319,16.955L0.321,17.332L0.324,21.571L0.326,30.861L0.328,26.159L0.33,26.797L0.333,15.345L0.335,25.85L0.337,38.037L0.34,23.077L0.342,27.178L0.344,24.945L0.347,21.51L0.349,16.633L0.352,30.135L0.354,23.823L0.357,26.476L0.359,14.474L0.362,21.443L0.364,24.176L0.367,19.761L0.369,26.874L0.372,25.394L0.374,29.263L0.377,47.36L0.38,20.295L0.382,16.591L0.385,17.968L0.387,24.54L0.39,40.117L0.393,19.48L0.396,23.588L0.398,29.056L0.401,23.59L0.404,23.468L0.407,25.373L0.41,16.663L0.412,21.972L0.415,31.452L0.418,45.718L0.421,26.91L0.424,28.123L0.427,25.796L0.43,27.943L0.433,14.363L0.436,23.716L0.439,27.335L0.442,29.263L0.445,25.726L0.448,44.274L0.451,18.21L0.454,18.976L0.457,26.798L0.461,15.239L0.464,20.318L0.467,19.036L0.47,35.31L0.473,41.873L0.477,25.491L0.48,27.96L0.483,48.608L0.487,31.716L0.49,27.228L0.494,19.512L0.497,29.141L0.5,26.613L0.504,22.724L0.507,22.536L0.511,33.773L0.514,41.153L0.518,20.456L0.522,35.073L0.525,33.245L0.529,36.179L0.533,28.498L0.536,27.93L0.54,31.001L0.544,14.99L0.547,26.096L0.551,42.438L0.555,38.143L0.559,26.792L0.563,23.418L0.567,19.325L0.571,34.047L0.575,29.607L0.579,19.969L0.583,18.715L0.587,33.059L0.591,23.628L0.595,21.263L0.599,32.502L0.603,23.622L0.607,19.15L0.612,23.686L0.616,26.524L0.62,35.548L0.624,20.464L0.629,23.506L0.633,25.82L0.637,56.612L0.642,24.439L0.646,33.315L0.651,34.549L0.655,27.008L0.66,23.893L0.664,40.099L0.669,42.997L0.674,37.017L0.678,26.979L0.683,21.889L0.688,39.462L0.693,55.885L0.697,20.378L0.702,58.185L0.707,34.717L0.712,36.339L0.717,35.879L0.722,25.31L0.727,18.965L0.732,21.382L0.737,24.726L0.742,32.494L0.747,31.697L0.753,32.62L0.758,36.011L0.763,24.361L0.768,56.022L0.774,34.537L0.779,27.49L0.784,25.899L0.79,41.378L0.795,54.734L0.801,48.012L0.806,35.587L0.812,24.239L0.818,24.742L0.823,31.03L0.829,56.091L0.835,39.922L0.841,30.66L0.846,22.245L0.852,36.019L0.858,47.903L0.864,41.724L0.87,44.297L0.876,38.717L0.882,46.454L0.888,45.053L0.895,26.106L0.901,38.569L0.907,37.592L0.913,29.626L0.92,33.823L0.926,25.422L0.932,35.85L0.939,29.616L0.945,33.808L0.952,47.175L0.959,45.992L0.965,49.579L0.972,32.66L0.979,48.017L0.985,28.776L0.992,29.505L0.999,31.385L1.006,32.544L1.013,44.609L1.02,36.414L1.027,33.532L1.034,38.127L1.042,30.935L1.049,38.352L1.056,46.433L1.063,42.039L1.071,41.781L1.078,38.925L1.086,39.242L1.093,41.311L1.101,36.489L1.108,47.353L1.116,35.337L1.124,35.452L1.132,31.056L1.139,31.732L1.147,45.458L1.155,52.921L1.163,36.626L1.171,36.672L1.18,56.564L1.188,54.04L1.196,42.357L1.204,48.599L1.213,34.886L1.221,42.388L1.23,38.183L1.238,32.625L1.247,34.582L1.255,72.596L1.264,37.642L1.273,51.145L1.282,43.105L1.29,60.061L1.299,45.339L1.308,39.292L1.318,36.987L1.327,49.102L1.336,44.68L1.345,48.296L1.354,63.066L1.364,45.485L1.373,43.679L1.383,43.598L1.392,47.099L1.402,38.029L1.412,48.721L1.422,40.304L1.432,45.197L1.441,47.93L1.451,53.845L1.462,49.667L1.472,47.721L1.482,39.611L1.492,46.623L1.503,52.411L1.513,52.195L1.523,52.981L1.534,50.305L1.545,44.601L1.555,59.667L1.566,51.701L1.577,64.214L1.588,61.62L1.599,52.67L1.61,46.623L1.621,52.577L1.633,47.531L1.644,46.651L1.655,46.686L1.667,49.879L1.678,52.758L1.69,65.391L1.702,45.429L1.713,46.705L1.725,45.89L1.737,58.829L1.749,51.272L1.762,63.952L1.774,68.725L1.786,55.751L1.798,64.907L1.811,50.414L1.823,52.254L1.836,60.018L1.849,59.719L1.862,50.362L1.875,47.895L1.888,63.158L1.901,56.749L1.914,60.866L1.927,51.013L1.941,77.933L1.954,68.158L1.968,57.358L1.981,62.845L1.995,57.541L2.009,70.932L2.023,82.378L2.037,69.521L2.051,56.936L2.065,55.284L2.08,63.46L2.094,78.954L2.108,70.516L2.123,58.678L2.138,62.343L2.153,78.177L2.168,72.934L2.183,60.713L2.198,80.778L2.213,84.434L2.228,54.632L2.244,63.258L2.259,65.72L2.275,66.612L2.291,63.185L2.307,68.472L2.323,55.62L2.339,58.791L2.355,68.76L2.371,74.317L2.388,66.951L2.405,61.042L2.421,76.149L2.438,61.446L2.455,79.517L2.472,72.131L2.489,62.967L2.506,64.209L2.524,63.428L2.541,68.316L2.559,78.939L2.577,63.786L2.595,63.272L2.613,68.75L2.631,64.133L2.649,61.874L2.667,86.345L2.686,69.448L2.704,98.208L2.723,73.796L2.742,75.435L2.761,77.668L2.78,69.482L2.8,75.725L2.819,75.152L2.839,74.384L2.858,64.063L2.878,78.831L2.898,69.653L2.918,73.771L2.938,80.717L2.959,73.508L2.979,76.726L3,82.821L3.021,78.778L3.042,82.539L3.063,74.986L3.084,86.648L3.106,87.601L3.127,80.42L3.149,84.29L3.171,87.8L3.193,77.749L3.215,111.123L3.237,84.628L3.26,89.811L3.282,87.265L3.305,92.864L3.328,80.764L3.351,99.254L3.374,95.417L3.398,89.301L3.421,95.094L3.445,91.158L3.469,88.666L3.493,119.046L3.517,89.14L3.542,83.837L3.566,103.541L3.591,83.453L3.616,96.919L3.641,90.601L3.666,94.018L3.692,87.786L3.717,90.151L3.743,95.861L3.769,105.255L3.795,91.598L3.821,97.319L3.848,113.05L3.875,110.873L3.902,99.259L3.929,91.755L3.956,107.909L3.983,95.727L4.011,111.879L4.039,94.354L4.067,94.944L4.095,103.042L4.123,114.794L4.152,113.379L4.181,105.038L4.21,104.53L4.239,102.504L4.268,114.398L4.298,110.837L4.328,106.768L4.358,111.545L4.388,108.344L4.419,117.336L4.449,114.084L4.48,119.201L4.511,119.874L4.543,104.107L4.574,109.111L4.606,109.158L4.638,113.749L4.67,114.862L4.702,109.838L4.735,109.715L4.768,114.515L4.801,124.799L4.834,115.094L4.868,123.115L4.902,108.889L4.936,117.712L4.97,127.967L5.004,142.151L5.039,125.517L5.074,131.562L5.109,126.017L5.145,122.004L5.18,129.249L5.216,131.123L5.252,137.248L5.289,135.327L5.326,140.402L5.363,138.18L5.4,126.74L5.437,147.403L5.475,130.002L5.513,127.961L5.551,140.18L5.59,142.171L5.629,136.414L5.668,143.356L5.707,133.318L5.747,146.03L5.786,140.844L5.827,147.85L5.867,139.706L5.908,138.622L5.949,135.595L5.99,153.047L6.031,141.655L6.073,142.966L6.115,147.075L6.158,146.218L6.201,150.616L6.244,139.597L6.287,146.021L6.331,152.54L6.375,149.185L6.419,150.796L6.463,155.808L6.508,150.902L6.553,172.055L6.599,152.125L6.645,156.976L6.691,156.017L6.737,160.029L6.784,167.96L6.831,174.806L6.878,162.073L6.926,158.1L6.974,168.11L7.022,158.966L7.071,155.399L7.12,172.506L7.17,166.801L7.219,169.225L7.27,169.909L7.32,169.023L7.371,178.793L7.422,173.57L7.473,178.483L7.525,183.649L7.577,180.718L7.63,173.953L7.683,183.489L7.736,177.31L7.79,186.725L7.844,175.173L7.898,180.578L7.953,181.922L8.008,197.445L8.064,188.502L8.12,184.03L8.176,184.36L8.233,186.365L8.29,201.421L8.348,185.935L8.406,198.893L8.464,204.992L8.523,196.984L8.582,197.24L8.641,199.68L8.701,196.315L8.762,201.17L8.822,198.622L8.884,210.776L8.945,211.653L9.007,209.775L9.07,214.754L9.133,216.835L9.196,212.671L9.26,214.326L9.324,217.484L9.389,224.219L9.454,228.123L9.52,219.27L9.586,216.402L9.652,226.468L9.719,225.167L9.787,228.289L9.855,229.373L9.923,233.504L9.992,229.307L10.061,233.032L10.131,231.762L10.201,239.672L10.272,236.256L10.343,238.705L10.415,239.352L10.487,239.89L10.56,247.872L10.633,247.829L10.707,240.371L10.781,255.325L10.856,251.461L10.932,258.474L11.007,257.098L11.084,255.465L11.161,256.477L11.238,258.701L11.316,261.105L11.395,261.118L11.474,264.741L11.553,265.97L11.633,268.944L11.714,265.164L11.795,271.205L11.877,269.024L11.96,270.485L12.043,275.235L12.126,272.188L12.21,277.953L12.295,282.457L12.38,275.225L12.466,281.992L12.553,279.029L12.64,281.845L12.728,281.227L12.816,281.074L12.905,283.22L12.994,282.058L13.085,282.719L13.175,287.01L13.267,282.411L13.359,284.39L13.452,287.755L13.545,286.907L13.639,290.631L13.734,287.237L13.829,287.819L13.925,288.242L14.021,287.506L14.119,290.53L14.217,291.048L14.315,293.252L14.415,293.135L14.515,291.941L14.615,290.828L14.717,291.809L14.819,288.664L14.922,289.889L15.025,294.816L15.129,290.756L15.234,293.241L15.34,292.587L15.447,291.814L15.554,292.863L15.662,295.458L15.77,295.022L15.88,291.913L15.99,294.965L16.101,293.331L16.213,294.656L16.325,293.564L16.438,294.503L16.552,295.009L16.667,295.561L16.783,294.976L16.899,295.316L17.017,295.284L17.135,294.986L17.254,293.991L17.373,295.951L17.494,295.673L17.615,294.03L17.738,292.518L17.861,295.307L17.985,294.912L18.109,294.831L18.235,296.376L18.361,294.434L18.489,296.896L18.617,296.421L18.746,294.387L18.876,295.381L19.007,293.326L19.139,294.095L19.272,294.242L19.406,295.003L19.54,296.222L19.676,295.471L19.813,292.118L19.95,296.567L20.088,296.919L20.228,297.16L20.368,297.338L20.51,295.687L20.652,296.793L20.795,296.111L20.939,296.793L21.085,295.993L21.231,295.788L21.378,296.477L21.527,297.078L21.676,296.572L21.826,296.782L21.978,297.825L22.13,296.998L22.284,296.591L22.439,296.179L22.594,297.443L22.751,296.431L22.909,297.848L23.068,296.901L23.228,296.996L23.389,298.115L23.551,295.664L23.715,296.526L23.879,297.303L24.045,297.274L24.212,296.591L24.38,298.279L24.549,296.085L24.719,297.998L24.891,296.641L25.064,298.131L25.237,297.716L25.413,298.237L25.589,297.519L25.766,298.046L25.945,298.136L26.125,298.126L26.307,297.887L26.489,296.253L26.673,297.868L26.858,297.356L27.044,297.175L27.232,298.098L27.421,298.304L27.611,297.043L27.803,297.026L27.996,297.801L28.19,297.915L28.386,297.561L28.583,297.78L28.781,298.698L28.981,297.506L29.182,298.085L29.384,297.533L29.588,297.78L29.793,298.88L30,298.126L30.208,298.188L30.418,297.397L30.629,297.972L30.841,297.181L31.055,298.139L31.271,298.572L31.488,297.62L31.706,297.912L31.926,298.581L32.148,298.367L32.371,297.674L32.595,298.733L32.822,297.842L33.049,297.312L33.279,297.881L33.51,298.718L33.742,298.669L33.976,298.237L34.212,298.15L34.449,297.376L34.688,298.386L34.929,298.044L35.171,298.422L35.415,298.227L35.661,297.213L35.909,298.282L36.158,298.409L36.409,298.23L36.661,297.729L36.916,298.332L37.172,298.698L37.43,298.047L37.689,298.729L37.951,298.538L38.214,298.723L38.479,298.53L38.746,298.712L39.015,297.825L39.286,298.339L39.559,298.305L39.833,298.491L40.11,298.638L40.388,298.393L40.668,298.244L40.95,298.622L41.234,298.337L41.52,298.63L41.809,298.726L42.099,298.436L42.391,298.077L42.685,298.06L42.981,298.723L43.279,298.765L43.58,298.652L43.882,297.96L44.186,298.612L44.493,298.534L44.802,298.617L45.113,298.201L45.426,298.469L45.741,298.592L46.058,298.337L46.378,298.672L46.7,298.402L47.024,298.8L47.35,298.143L47.678,298.704L48.009,298.529L48.342,298.306L48.678,298.391L49.016,298.256L49.356,298.442L49.698,298.687L50.043,298.622L50.39,298.755L50.74,298.513L51.092,298.588L51.446,298.574L51.803,298.123L52.163,298.423L52.525,298.429L52.889,298.732L53.256,298.011L53.626,297.389L53.998,298.152L54.373,298.543L54.75,298.685L55.13,298.791L55.512,298.408L55.897,298.481L56.285,298.263L56.676,298.192L57.069,297.851L57.465,297.954L57.864,297.728L58.265,298.131L58.67,298.454L59.077,298.535L59.487,298.354L59.899,298.796L60.315,298.734L60.733,298.626L61.155,298.465L61.579,298.637L62.006,298.574L62.437,298.488L62.87,298.238L63.306,298.305L63.745,298.3L64.188,298.582L64.633,298.757L65.082,298.14L65.533,298.189L65.988,298.015L66.446,298.252L66.907,298.862L67.371,298.031L67.838,297.097L68.309,297.69L68.783,297.87L69.26,298.415L69.741,298.22L70.225,297.494L70.712,298.054L71.203,298.38L71.697,298.188L72.194,297.597L72.695,297.412L73.2,298.061L73.707,298.414L74.219,298.05L74.734,297.752L75.252,297.716L75.775,298.094L76.3,297.236L76.83,297.637L77.363,297.62L77.9,297.893L78.44,298.532L78.984,298.371L79.533,298.203L80.084,298.123L80.64,298.504L81.2,298.41L81.763,297.411L82.33,297.747L82.902,296.733L83.477,296.856L84.056,296.611L84.639,297.176L85.227,296.666L85.818,297.221L86.413,297.656L87.013,297.039L87.617,296.932L88.225,295.719L88.837,296.913L89.453,296.18L90.074,296.708L90.699,296.893L91.328,297.372L91.962,297.389L92.6,297.602L93.242,296.784L93.889,296.267L94.541,296.786L95.197,297.538L95.857,297.303L96.523,297.144L97.192,296.886L97.867,294.475L98.546,294.815L99.229,296.415L99.918,294.548L100.611,296.559L101.309,296.083L102.012,296.483L102.72,297.361L103.433,297.637L104.151,296.186L104.873,295.043L105.601,296.077L106.334,295.413L107.071,294.806L107.814,295.807L108.562,295.884L109.316,295.218L110.074,294.757L110.838,295.648L111.607,296.832L112.382,297.598L113.161,296.56L113.946,295.625L114.737,295.839L115.533,296.52L116.335,296.725L117.142,295.259L117.955,294.246L118.773,294.206L119.597,296.009L120.427,296.714L121.263,297.421L122.104,294.918L122.952,296.579L123.805,295.269L124.664,296.067L125.529,294.793L126.4,295.836L127.277,296.051L128.16,293.191L129.049,293.642L129.944,295.446L130.846,296.917L131.754,296.9L132.668,297.187L133.589,297.683L134.516,295.898L135.449,294.914L136.389,291.005L137.335,292.186L138.288,292.567L139.248,295.201L140.214,295.779L141.187,296.698L142.166,293.969L143.153,294.184L144.146,292.427L145.146,288.395L146.153,294.069L147.168,291.543L148.189,292.608L149.217,294.89L150.252,296.402L151.295,294.077L152.345,295.942L153.402,292.527L154.466,292.591L155.538,292.187L156.617,292.656L157.704,289.811L158.798,291.656L159.9,291.336L161.009,291.892L162.126,294.896L163.251,294.334L164.384,290.612L165.525,291.176L166.673,290.704L167.83,290.331L168.994,294.097L170.167,293.161L171.348,293.822L172.537,293.125L173.734,292.197L174.939,292.202L176.153,290.803L177.375,290.575L178.606,293.01L179.845,292.881L181.093,291.2L182.35,293.307L183.615,292.017L184.889,290.177L186.172,290.569L187.464,292.214L188.764,293.011L190.074,286.175L191.393,290.617L192.721,292.516L194.058,291.054L195.405,289.981L196.761,289.097L198.126,288.867L199.501,289.789L200.885,289.628L202.279,293.189L203.682,292.256L205.095,289.769L206.519,286.868L207.952,291.529L209.394,287.227L210.847,288.112L212.31,291.761L213.783,286.275L215.267,288.701L216.76,284.38L218.265,286.808L219.779,285.198L221.304,289.726L222.839,287.172L224.386,290.291L225.943,290.423L227.51,289.663L229.089,287.449L230.679,285.491L232.279,279.673L233.891,286.414L235.514,285.698L237.148,289.507L238.793,293.723L240.45,290.116L242.119,287.985L243.799,290.143L245.49,283.548L247.194,287.028L248.909,286.71L250.636,285.282L252.375,289.154L254.126,287.201L255.889,285.069L257.665,282.634L259.453,284.483L261.253,288.54L263.066,288.471L264.891,285.68L266.729,289.154L268.58,281.122L270.443,281.609L272.32,284.06L274.209,289.257L276.112,284.854L278.028,280.812L279.957,283.805L281.899,284.067L283.855,286.506L285.825,285.041L287.808,289.561L289.805,278.645L291.816,289.002L293.841,283.997L295.88,287.04L297.933,282.287L300,285.153" stroke="#4c78a8" stroke-width="2"/></g></g><path class="foreground" aria-hidden="true" d="" display="none"/></g></g></g></svg>